<svg xmlns="http://www.w3.org/2000/svg" viewBox="0 0 320 200"><rect width="320" height="200" fill="#101C3A"/><g fill="#22315C"><circle cx="240" cy="20" r="2"/><circle cx="264" cy="20" r="2"/><circle cx="288" cy="20" r="2"/><circle cx="312" cy="20" r="2"/><circle cx="240" cy="44" r="2"/><circle cx="264" cy="44" r="2"/><circle cx="288" cy="44" r="2"/><circle cx="312" cy="44" r="2"/><circle cx="240" cy="68" r="2"/><circle cx="264" cy="68" r="2"/><circle cx="288" cy="68" r="2"/><circle cx="312" cy="68" r="2"/><circle cx="240" cy="92" r="2"/><circle cx="264" cy="92" r="2"/><circle cx="288" cy="92" r="2"/><circle cx="312" cy="92" r="2"/></g><circle cx="272" cy="112" r="34" fill="none" stroke="#FF6B5E" stroke-width="5"/><circle cx="300" cy="160" r="9" fill="#FF6B5E"/><text x="22" y="38" fill="#FF6B5E" font-family="Arial" font-size="11" font-weight="700" letter-spacing="3">WE'RE HIRING</text><text x="22" y="76" fill="#FFFFFF" font-family="Arial" font-size="26" font-weight="700">Senior Product</text><text x="22" y="104" fill="#FFFFFF" font-family="Arial" font-size="26" font-weight="700">Designer</text><text x="22" y="132" fill="#8FA1C7" font-family="Arial" font-size="10">Remote-first · Full time · EU or UK</text><rect x="22" y="150" width="132" height="26" rx="13" fill="#FF6B5E"/><text x="88" y="167" fill="#101C3A" font-family="Arial" font-size="10" font-weight="700" text-anchor="middle">Apply — careers.acme.io</text></svg>
